function data()
return { 
		subMeshes = {
			{ 
				indices = { 
					normal = { 
						count = 28656,
						offset = 346816,
					},
					position = { 
						count = 28656,
						offset = 289504,
					},
					tangent = { 
						count = 28656,
						offset = 375472,
					},
					uv0 = { 
						count = 28656,
						offset = 318160,
					},
				},
			},
		},
		vertexAttr = { 
			normal = { 
				count = 85968,
				numComp = 3,
				offset = 88912,
			},
			position = { 
				count = 47616,
				numComp = 3,
				offset = 0,
			},
			tangent = { 
				count = 114624,
				numComp = 4,
				offset = 174880,
			},
			uv0 = { 
				count = 41296,
				numComp = 2,
				offset = 47616,
			},
		},
	}
end