function data()
return { 
		subMeshes = {
			{ 
				indices = { 
					normal = { 
						count = 44220,
						offset = 492056,
					},
					position = { 
						count = 44220,
						offset = 403616,
					},
					tangent = { 
						count = 44220,
						offset = 536276,
					},
					uv0 = { 
						count = 44220,
						offset = 447836,
					},
				},
			},
		},
		vertexAttr = { 
			normal = { 
				count = 132660,
				numComp = 3,
				offset = 94076,
			},
			position = { 
				count = 49260,
				numComp = 3,
				offset = 0,
			},
			tangent = { 
				count = 176880,
				numComp = 4,
				offset = 226736,
			},
			uv0 = { 
				count = 44816,
				numComp = 2,
				offset = 49260,
			},
		},
	}
end