function data()
return { 
		subMeshes = {
			{ 
				indices = { 
					normal = { 
						count = 12768,
						offset = 145600,
					},
					position = { 
						count = 12768,
						offset = 120064,
					},
					tangent = { 
						count = 12768,
						offset = 158368,
					},
					uv0 = { 
						count = 12768,
						offset = 132832,
					},
				},
			},
		},
		vertexAttr = { 
			normal = { 
				count = 38304,
				numComp = 3,
				offset = 30688,
			},
			position = { 
				count = 16800,
				numComp = 3,
				offset = 0,
			},
			tangent = { 
				count = 51072,
				numComp = 4,
				offset = 68992,
			},
			uv0 = { 
				count = 13888,
				numComp = 2,
				offset = 16800,
			},
		},
	}
end