function data()
return { 
		subMeshes = {
			{ 
				indices = { 
					normal = { 
						count = 18144,
						offset = 208320,
					},
					position = { 
						count = 18144,
						offset = 172032,
					},
					tangent = { 
						count = 18144,
						offset = 226464,
					},
					uv0 = { 
						count = 18144,
						offset = 190176,
					},
				},
			},
		},
		vertexAttr = { 
			normal = { 
				count = 54432,
				numComp = 3,
				offset = 45024,
			},
			position = { 
				count = 24864,
				numComp = 3,
				offset = 0,
			},
			tangent = { 
				count = 72576,
				numComp = 4,
				offset = 99456,
			},
			uv0 = { 
				count = 20160,
				numComp = 2,
				offset = 24864,
			},
		},
	}
end