function data()
return { 
		subMeshes = {
			{ 
				indices = { 
					normal = { 
						count = 77784,
						offset = 869764,
					},
					position = { 
						count = 77784,
						offset = 714196,
					},
					tangent = { 
						count = 77784,
						offset = 947548,
					},
					uv0 = { 
						count = 77784,
						offset = 791980,
					},
				},
			},
		},
		vertexAttr = { 
			normal = { 
				count = 233352,
				numComp = 3,
				offset = 169708,
			},
			position = { 
				count = 85188,
				numComp = 3,
				offset = 0,
			},
			tangent = { 
				count = 311136,
				numComp = 4,
				offset = 403060,
			},
			uv0 = { 
				count = 84520,
				numComp = 2,
				offset = 85188,
			},
		},
	}
end