function data()
return {
	subMeshes = {
		{
			indices = {
				normal = {
					count = 18144,
					offset = 205632,
				},
				position = {
					count = 18144,
					offset = 169344,
				},
				tangent = {
					count = 18144,
					offset = 223776,
				},
				uv0 = {
					count = 18144,
					offset = 187488,
				},
			},
		},
	},
	vertexAttr = {
		normal = {
			count = 54432,
			numComp = 3,
			offset = 42336,
		},
		position = {
			count = 22176,
			numComp = 3,
			offset = 0,
		},
		tangent = {
			count = 72576,
			numComp = 4,
			offset = 96768,
		},
		uv0 = {
			count = 20160,
			numComp = 2,
			offset = 22176,
		},
	},
}
end
