function data()
return {
	subMeshes = {
		{
			indices = {
				normal = {
					count = 25032,
					offset = 305148,
				},
				position = {
					count = 25032,
					offset = 255084,
				},
				tangent = {
					count = 25032,
					offset = 330180,
				},
				uv0 = {
					count = 25032,
					offset = 280116,
				},
			},
		},
	},
	vertexAttr = {
		normal = {
			count = 75096,
			numComp = 3,
			offset = 79860,
		},
		position = {
			count = 44004,
			numComp = 3,
			offset = 0,
		},
		tangent = {
			count = 100128,
			numComp = 4,
			offset = 154956,
		},
		uv0 = {
			count = 35856,
			numComp = 2,
			offset = 44004,
		},
	},
}
end
