function data()
return {
	subMeshes = {
		{
			indices = {
				normal = {
					count = 44160,
					offset = 501152,
				},
				position = {
					count = 44160,
					offset = 412832,
				},
				tangent = {
					count = 44160,
					offset = 545312,
				},
				uv0 = {
					count = 44160,
					offset = 456992,
				},
			},
		},
	},
	vertexAttr = {
		normal = {
			count = 132480,
			numComp = 3,
			offset = 103712,
		},
		position = {
			count = 51264,
			numComp = 3,
			offset = 0,
		},
		tangent = {
			count = 176640,
			numComp = 4,
			offset = 236192,
		},
		uv0 = {
			count = 52448,
			numComp = 2,
			offset = 51264,
		},
	},
}
end
