function data()
return {
	subMeshes = {
		{
			indices = {
				normal = {
					count = 108048,
					offset = 1239792,
				},
				position = {
					count = 108048,
					offset = 1023696,
				},
				tangent = {
					count = 108048,
					offset = 1347840,
				},
				uv0 = {
					count = 108048,
					offset = 1131744,
				},
			},
		},
	},
	vertexAttr = {
		normal = {
			count = 324144,
			numComp = 3,
			offset = 267360,
		},
		position = {
			count = 125664,
			numComp = 3,
			offset = 0,
		},
		tangent = {
			count = 432192,
			numComp = 4,
			offset = 591504,
		},
		uv0 = {
			count = 141696,
			numComp = 2,
			offset = 125664,
		},
	},
}
end
