function data()
return {
	subMeshes = {
		{
			indices = {
				normal = {
					count = 19524,
					offset = 229232,
				},
				position = {
					count = 19524,
					offset = 190184,
				},
				tangent = {
					count = 19524,
					offset = 248756,
				},
				uv0 = {
					count = 19524,
					offset = 209708,
				},
			},
		},
	},
	vertexAttr = {
		normal = {
			count = 58572,
			numComp = 3,
			offset = 53516,
		},
		position = {
			count = 27300,
			numComp = 3,
			offset = 0,
		},
		tangent = {
			count = 78096,
			numComp = 4,
			offset = 112088,
		},
		uv0 = {
			count = 26216,
			numComp = 2,
			offset = 27300,
		},
	},
}
end
