function data()
return {
	subMeshes = {
		{
			indices = {
				normal = {
					count = 5724,
					offset = 63704,
				},
				position = {
					count = 5724,
					offset = 52256,
				},
				tangent = {
					count = 5724,
					offset = 69428,
				},
				uv0 = {
					count = 5724,
					offset = 57980,
				},
			},
		},
	},
	vertexAttr = {
		normal = {
			count = 17172,
			numComp = 3,
			offset = 12188,
		},
		position = {
			count = 4596,
			numComp = 3,
			offset = 0,
		},
		tangent = {
			count = 22896,
			numComp = 4,
			offset = 29360,
		},
		uv0 = {
			count = 7592,
			numComp = 2,
			offset = 4596,
		},
	},
}
end
