function data()
return {
	subMeshes = {
		{
			indices = {
				normal = {
					count = 160392,
					offset = 1759940,
				},
				position = {
					count = 160392,
					offset = 1439156,
				},
				tangent = {
					count = 160392,
					offset = 1920332,
				},
				uv0 = {
					count = 160392,
					offset = 1599548,
				},
			},
		},
	},
	vertexAttr = {
		normal = {
			count = 481176,
			numComp = 3,
			offset = 316412,
		},
		position = {
			count = 161748,
			numComp = 3,
			offset = 0,
		},
		tangent = {
			count = 641568,
			numComp = 4,
			offset = 797588,
		},
		uv0 = {
			count = 154664,
			numComp = 2,
			offset = 161748,
		},
	},
}
end
